<svg xmlns="http://www.w3.org/2000/svg" xmlns:xlink="http://www.w3.org/1999/xlink" width="500" zoomAndPan="magnify" viewBox="0 0 375 374.999991" height="500" preserveAspectRatio="xMidYMid meet" version="1.0"><defs><clipPath id="id1"><path d="M 31.683594 67.839844 L 355.96875 67.839844 L 355.96875 296.636719 L 31.683594 296.636719 Z M 31.683594 67.839844 " clip-rule="nonzero"/></clipPath><clipPath id="id2"><path d="M 19.460938 96.355469 L 306.714844 96.355469 L 306.714844 307.058594 L 19.460938 307.058594 Z M 19.460938 96.355469 " clip-rule="nonzero"/></clipPath></defs><g clip-path="url(#id1)"><path fill="#f79525" d="M 36.117188 276.003906 C 46.859375 270.992188 58.191406 264.269531 64.636719 254.957031 C 71.085938 245.648438 82.300781 253.480469 95.199219 242.734375 C 108.09375 231.996094 121.613281 242.058594 135.941406 242.058594 C 150.269531 242.058594 152.257812 228.25 178.046875 219.652344 C 203.832031 211.058594 199.324219 198.988281 207.917969 205.433594 C 216.515625 211.878906 220.09375 206.148438 220.8125 199.703125 C 221.527344 193.261719 248.074219 192.421875 259.535156 193.855469 C 270.996094 195.285156 287.757812 187.175781 293.488281 185.027344 C 299.21875 182.878906 287.5625 176.875 283.980469 163.980469 C 280.402344 151.09375 273.832031 133.832031 243.03125 131.683594 C 212.230469 129.535156 200.175781 122.941406 179.402344 115.777344 C 158.628906 108.617188 137.300781 100.84375 137.300781 100.84375 C 137.300781 100.84375 139.757812 78.8125 144.769531 71.648438 C 149.785156 64.488281 175.609375 69.613281 196.378906 69.613281 C 217.152344 69.613281 232.285156 85.132812 233.71875 87.28125 C 235.152344 89.429688 243.179688 83.117188 270.402344 84.546875 C 297.621094 85.984375 319.675781 105.902344 326.839844 120.226562 C 334.003906 134.550781 336.152344 135.265625 351.195312 154.601562 C 366.238281 173.9375 342.597656 193.988281 323.257812 206.160156 C 303.917969 218.335938 283.144531 221.917969 269.535156 221.917969 C 255.925781 221.917969 255.925781 229.082031 223.691406 244.835938 C 191.453125 260.589844 137.734375 277.777344 120.539062 278.492188 C 103.347656 279.210938 38.164062 296.398438 38.164062 296.398438 C 38.164062 296.398438 25.371094 281.019531 36.117188 276.003906 " fill-opacity="1" fill-rule="nonzero"/></g><g clip-path="url(#id2)"><path fill="#fbc268" d="M 283.980469 142.933594 C 305.019531 155.554688 296.882812 163.304688 302.996094 170.769531 C 309.109375 178.238281 307.75 187.742188 297.5625 189.78125 C 287.378906 191.816406 282.625 202.679688 282.625 212.863281 C 282.625 223.046875 283.980469 260.386719 275.152344 259.707031 C 266.324219 259.03125 265.648438 237.984375 264.289062 231.195312 C 262.929688 224.40625 259.535156 203.359375 249.347656 202 C 239.164062 200.644531 231.691406 212.863281 226.9375 217.617188 C 222.1875 222.367188 220.828125 220.332031 212.679688 213.542969 C 204.53125 206.753906 189.589844 225.761719 175.328125 226.441406 C 161.066406 227.121094 154.957031 237.304688 146.128906 241.378906 C 137.300781 245.453125 120.324219 249.523438 109.457031 249.523438 C 98.59375 249.523438 87.046875 248.167969 78.898438 254.957031 C 70.75 261.746094 73.464844 272.609375 66.675781 273.964844 C 59.886719 275.324219 51.058594 265.820312 46.984375 271.25 C 42.90625 276.683594 37.476562 290.261719 29.328125 302.480469 C 21.175781 314.699219 22.535156 299.765625 21.175781 288.902344 C 19.820312 278.039062 17.78125 269.894531 24.574219 257.671875 C 31.363281 245.453125 51.058594 215.578125 60.5625 203.359375 C 70.070312 191.136719 83.652344 183.671875 84.332031 172.128906 C 85.011719 160.585938 96.554688 147.6875 101.988281 141.578125 C 107.421875 135.46875 122.359375 126.640625 125.078125 116.457031 C 127.792969 106.273438 122.359375 96.089844 156.992188 96.769531 C 191.628906 97.449219 191.628906 112.382812 204.53125 117.136719 C 217.433594 121.890625 258.855469 136.144531 268.363281 136.144531 C 277.871094 136.144531 280.585938 140.898438 283.980469 142.933594 " fill-opacity="1" fill-rule="nonzero"/></g><path fill="#f25a71" d="M 93.839844 240.699219 C 126.933594 235.363281 133.226562 224.40625 131.867188 210.148438 C 130.507812 195.890625 108.101562 196.570312 91.121094 196.570312 C 74.144531 196.570312 61.242188 204.714844 58.527344 213.542969 C 55.8125 222.367188 72.789062 244.09375 93.839844 240.699219 Z M 135.765625 165.738281 C 157.605469 167.679688 185.515625 147.191406 185.515625 142.976562 C 185.515625 138.761719 184.671875 127.804688 159.375 122.742188 C 134.078125 117.683594 125.648438 117.683594 110.46875 132.015625 C 95.289062 146.347656 97.820312 162.367188 135.765625 165.738281 Z M 180.082031 180.902344 C 180.082031 159.582031 208.519531 159.582031 224.871094 159.582031 C 241.222656 159.582031 249.753906 165.980469 251.886719 173.796875 C 254.019531 181.613281 236.957031 190.144531 213.496094 196.539062 C 213.496094 196.539062 180.082031 202.226562 180.082031 180.902344 " fill-opacity="1" fill-rule="nonzero"/><path fill="#5ec7a0" d="M 57.847656 250.882812 C 68.714844 249.523438 57.847656 246.128906 55.8125 241.378906 C 53.773438 236.625 37.65625 236.441406 38.15625 243.414062 C 38.832031 252.917969 46.984375 252.242188 57.847656 250.882812 Z M 171.253906 172.128906 C 175.328125 176.203125 164.464844 200.644531 157.671875 201.320312 C 150.882812 202 154.957031 170.769531 154.957031 170.769531 C 154.957031 170.769531 167.179688 168.054688 171.253906 172.128906 " fill-opacity="1" fill-rule="nonzero"/><path stroke-linecap="round" transform="matrix(0.0679082, 0, 0, -0.0678916, 19.461095, 307.056952)" fill="none" stroke-linejoin="round" d="M 3900.252206 1512.382202 C 3900.252206 1512.382202 4320.281386 1652.426223 4540.247366 1842.411991 C 4760.270869 2032.397758 4720.292742 2332.393455 4480.251415 2492.402668 C 4240.26761 2652.41188 4390.286249 2792.398365 4090.248971 3032.383416 C 3790.269215 3272.426003 3100.287016 3172.427437 3100.287016 3172.427437 C 2910.29025 3452.400406 2600.301582 3352.401841 2480.252158 3362.413205 C 2360.260255 3372.424568 2200.290226 3472.423134 1980.266724 3382.378396 C 1760.300744 3292.391194 1780.261046 3022.429588 1780.261046 3022.429588 M 340.300696 952.378726 C 332.420115 913.196319 540.248851 842.426333 560.266676 852.380161 C 580.2845 862.391524 540.248851 982.412818 520.288549 1012.389373 C 500.270725 1042.423465 350.252086 1002.378009 340.300696 952.378726 Z M 2020.24485 1702.425506 C 2050.271587 1672.391414 2110.267538 1672.391414 2110.267538 1672.391414 C 2110.267538 1672.391414 2270.29509 1962.433284 2230.259441 2012.432567 C 2190.281314 2062.43185 1988.895096 2016.5752 2000.284548 1982.398475 C 2010.293461 1952.42192 1990.275636 1732.402061 2020.24485 1702.425506 Z M 740.254529 1432.406364 C 620.262627 1252.43196 960.278032 1112.387939 1210.270749 1142.42203 C 1460.263466 1172.398586 1690.29588 1272.397151 1770.252134 1472.394283 C 1850.265909 1672.391414 1493.108804 1741.665449 1200.261836 1712.379333 C 1000.256158 1692.414142 860.246432 1612.380768 740.254529 1432.406364 Z M 1850.265909 2272.382809 C 2300.091737 2285.271001 2610.252972 2592.401234 2310.273216 2662.423244 C 2010.293461 2732.387718 1500.299115 2642.400517 1420.285339 2522.379223 C 1340.271563 2402.415466 1500.299115 2262.428981 1850.265909 2272.382809 Z M 3020.27324 2232.39489 C 2702.34647 2185.272436 2310.273216 1982.398475 2610.252972 1812.377899 C 2910.29025 1642.414859 3530.267586 1962.433284 3500.298372 2072.385677 C 3470.271635 2182.395607 3290.283782 2272.382809 3020.27324 2232.39489 Z M 1600.273192 942.424899 C 1600.273192 942.424899 1710.256182 952.378726 1850.265909 1012.389373 C 1990.275636 1072.40002 2160.254577 1212.386505 2330.291041 1222.397868 C 2500.269982 1232.409232 2710.284572 1422.395 2810.25865 1412.383636 C 2910.29025 1402.429809 2910.29025 1252.43196 3000.255416 1232.409232 C 3090.278104 1212.386505 3090.278104 1582.404212 3300.292694 1572.392849 C 3510.249762 1562.381485 3610.281362 1452.429092 3610.281362 1272.397151 C 3610.281362 1092.422748 3660.268401 792.42705 3760.300001 822.403605 C 3860.274079 852.380161 3830.247342 1402.429809 3910.261118 1612.380768 C 3990.274893 1822.389263 4140.293533 1802.424072 4140.293533 1802.424072 M 240.269096 292.434222 C 240.269096 292.434222 320.282871 352.387332 400.296647 382.421424 C 480.2529 412.397979 1040.291808 552.384463 1360.289388 602.383746 C 1680.286968 652.383029 1780.261046 742.427768 2210.299139 862.391524 C 2640.279709 982.412818 3580.254625 1412.383636 3580.254625 1412.383636 M 4265.289891 2356.271134 C 4265.289891 2356.271134 4072.244434 2348.561233 4033.646847 2178.713266 C 3995.04926 2008.865299 4172.621169 1908.521514 4172.621169 1908.521514 M 1300.293437 882.414252 C 1300.293437 882.414252 1190.252924 802.380878 990.247246 802.380878 C 790.299091 802.380878 810.259393 612.39511 660.298276 512.396544 C 510.279637 412.397979 460.292598 572.407191 370.26991 532.419272 C 280.247222 492.431353 220.251271 142.378836 120.277193 112.402281 C 20.245593 82.425726 50.27233 452.385898 40.263418 602.383746 C 30.254505 752.381595 300.265047 1012.389373 370.26991 1152.433394 C 440.274774 1292.419879 550.257764 1562.381485 630.271539 1602.42694 C 710.285315 1642.414859 970.286944 1982.398475 980.295856 2082.397041 C 990.247246 2182.395607 1200.261836 2472.37994 1350.280476 2572.378506 C 1500.299115 2672.434608 1550.286154 2772.433174 1600.273192 2852.409012 C 1650.260231 2932.38485 1770.252134 3012.418224 1770.252134 3012.418224 C 1770.252134 3012.418224 2130.285363 3212.415356 2380.27808 3032.383416 C 2630.270797 2852.409012 2770.280524 2602.412598 3230.287831 2592.401234 C 3690.295138 2582.38987 3860.274079 2332.393455 3930.278942 2272.382809 " stroke="#293e9c" stroke-width="80" stroke-opacity="1" stroke-miterlimit="10"/></svg>